<?xml version="1.0" standalone="no"?>
<!DOCTYPE svg PUBLIC "-//W3C//DTD SVG 20010904//EN"
 "http://www.w3.org/TR/2001/REC-SVG-20010904/DTD/svg10.dtd">
<svg version="1.0" xmlns="http://www.w3.org/2000/svg"
 width="700.000000pt" height="700.000000pt" viewBox="0 0 700.000000 700.000000"
 preserveAspectRatio="xMidYMid meet">
<metadata>
Created by potrace 1.14, written by Peter Selinger 2001-2017
</metadata>
<g transform="translate(0.000000,700.000000) scale(0.100000,-0.100000)"
fill="#000000" stroke="none">
<path d="M1749 6554 c-40 -12 -88 -56 -415 -379 -203 -201 -405 -401 -449
-445 l-80 -79 -170 165 c-251 242 -264 243 -479 28 -125 -125 -156 -168 -156
-216 0 -72 13 -87 369 -442 197 -197 363 -355 381 -363 43 -18 104 -17 143 3
51 25 1256 1231 1278 1279 42 91 23 131 -139 289 -71 70 -138 133 -148 140
-38 27 -87 34 -135 20z"/>
<path d="M2775 6113 c-52 -16 -119 -80 -136 -131 -9 -26 -13 -115 -13 -302 0
-252 1 -267 22 -307 26 -50 84 -100 132 -113 22 -6 770 -10 2041 -10 l2007 0
53 28 c39 20 62 41 84 77 l30 48 2 272 c2 167 -1 284 -7 302 -16 44 -67 101
-113 125 l-42 22 -2008 1 c-1577 0 -2018 -3 -2052 -12z"/>
<path d="M1731 4374 c-20 -8 -208 -188 -479 -459 l-445 -446 -35 33 c-19 18
-93 89 -164 158 -71 69 -141 131 -156 139 -39 21 -102 21 -142 1 -56 -29 -296
-279 -305 -317 -7 -36 0 -95 15 -123 13 -24 669 -681 707 -708 36 -25 101 -33
149 -16 29 10 176 151 657 631 340 340 625 631 634 647 20 38 24 101 9 138
-15 35 -268 292 -309 314 -39 21 -97 24 -136 8z"/>
<path d="M2793 3930 c-74 -16 -146 -87 -162 -161 -4 -19 -7 -149 -6 -291 l1
-256 30 -48 c18 -30 48 -60 78 -79 l49 -30 2006 -2 c2166 -2 2071 -4 2131 50
14 12 36 40 50 62 l25 40 0 280 c0 154 -4 289 -9 300 -5 11 -10 23 -10 28 -1
4 -19 25 -40 47 -71 73 82 68 -2126 67 -1092 0 -1999 -4 -2017 -7z"/>
<path d="M798 1965 c-2 -1 -21 -5 -43 -8 -185 -23 -383 -174 -476 -362 -51
-103 -68 -185 -64 -305 9 -297 218 -548 513 -616 405 -94 797 213 800 626 1
119 -18 203 -68 305 -110 222 -337 362 -589 363 -38 0 -71 -1 -73 -3z"/>
<path d="M2775 1739 c-44 -12 -102 -65 -127 -112 -20 -40 -22 -57 -23 -300 0
-201 2 -267 14 -303 19 -60 78 -120 136 -136 36 -11 434 -13 2052 -13 1895 1
2010 2 2044 18 45 22 83 61 108 112 19 37 20 59 18 320 l-2 280 -32 47 c-22
31 -50 54 -85 72 l-52 26 -2010 -1 c-1127 0 -2024 -5 -2041 -10z"/>
</g>
</svg>
